<svg width="129" height="40" viewBox="0 0 129 40" fill="none" xmlns="http://www.w3.org/2000/svg">
<path d="M47.093 9.79785C41.121 9.79785 36.1375 14.532 36.1375 20.5011C36.1375 26.0037 40.311 30.2575 46.0771 30.2575C52.0491 30.2575 57.0326 25.5234 57.0326 19.5543C57.0326 14.0654 52.8453 9.79785 47.093 9.79785ZM46.0633 26.4291C42.6037 26.4291 40.1737 23.9179 40.1737 20.5011C40.1737 16.755 43.249 13.64 47.0793 13.64C50.5389 13.64 52.9689 16.1512 52.9689 19.568C52.9826 23.3141 49.9074 26.4291 46.0633 26.4291Z" fill="#3A21C0"/>
<path d="M52.7753 21.1865C52.1987 23.533 50.4002 25.4267 48.0664 26.1265L49.2196 29.804C52.8989 28.72 55.8093 25.7834 56.7292 22.0647L52.7753 21.1865Z" fill="#FF5E32"/>
<path d="M8.89944 11.0052C8.87198 11.1561 9.03672 11.2659 9.16028 11.1835C10.5057 10.2916 12.3179 9.729 14.3085 9.729C19.4294 9.729 23.5617 13.9005 23.5617 19.1012C23.5617 23.0257 21.4749 27.0738 17.6309 29.036C16.1757 29.7633 14.4321 30.1887 12.6886 30.1887C9.61333 30.1887 7.58147 28.9811 6.38707 28.0618C6.29097 27.9794 6.13995 28.0343 6.1125 28.1715L4.08065 39.7119C4.05319 39.8765 3.9159 40 3.73743 40H0.346438C0.126779 40 -0.0242374 39.8079 0.00322002 39.6021L5.13776 10.4288C5.16522 10.2642 5.30251 10.1407 5.48098 10.1407H8.65231C8.87197 10.1407 9.03672 10.3328 8.99553 10.5523L8.89944 11.0052ZM7.45792 20.6518C6.96369 23.6021 9.21519 26.3191 12.2081 26.3465C12.2218 26.3465 12.2492 26.3465 12.263 26.3465C16.107 26.3465 19.5117 23.4511 19.5117 19.307C19.5117 15.8491 16.9994 13.5575 13.5809 13.5575C12.6886 13.5575 11.7138 13.777 10.8077 14.1612C9.28383 14.8062 8.19926 16.2058 7.92469 17.8388L7.45792 20.6518Z" fill="#3A21C0"/>
<path d="M36.9332 13.8728C36.8783 14.0375 36.7135 14.1336 36.5488 14.1061C36.2605 14.065 35.9859 14.0375 35.6976 14.0375C35.0523 14.0375 34.4208 14.1473 33.8168 14.3257C31.3868 15.0804 29.602 17.1662 29.1627 19.6773L27.378 29.9415C27.3505 30.1061 27.2132 30.2296 27.0348 30.2296H23.6438C23.4241 30.2296 23.2731 30.0375 23.3005 29.8317L26.6366 10.9089C26.6641 10.7442 26.8014 10.6207 26.9798 10.6207H30.1512C30.3708 10.6207 30.5356 10.8265 30.4944 11.0324L30.2885 12.0066C30.261 12.1713 30.4395 12.2811 30.563 12.1713C31.9908 11.0186 33.9403 10.1953 35.78 10.1953C36.3978 10.1953 36.9881 10.2502 37.6196 10.4286C37.8118 10.4835 37.9079 10.6756 37.853 10.854L36.9332 13.8728Z" fill="#3A21C0"/>
<path d="M57.7322 24.892C57.842 24.741 58.0617 24.7136 58.2264 24.8234C59.6267 25.9212 61.3703 26.7719 63.4159 26.7719C65.3379 26.7719 66.8343 25.7976 66.8343 24.2608C66.8343 22.9434 65.2967 22.2573 63.512 21.4889C61.082 20.4597 58.2676 19.3208 58.2676 16.2059C58.2676 12.3225 62.0155 9.85254 65.8184 9.85254C68.619 9.85254 70.5548 10.717 72.0924 11.7736C72.2571 11.8834 72.2846 12.1167 72.161 12.2676L70.4038 14.5455C70.2939 14.6827 70.1017 14.7239 69.9507 14.6278C68.8387 13.9143 67.4109 13.3928 65.9419 13.3928C64.5828 13.3928 62.3176 13.9417 62.3176 15.8217C62.3176 17.0567 64.0199 17.6055 65.8184 18.4151C68.2072 19.4855 70.898 20.844 70.898 24.0824C70.898 27.7874 67.5345 30.3122 63.4708 30.3122C60.6838 30.3122 58.1715 29.5301 56.0023 27.8011C55.8513 27.6913 55.8239 27.4718 55.9474 27.3208L57.7322 24.892Z" fill="#3A21C0"/>
<path d="M78.6274 11.6638C78.5999 11.8148 78.7647 11.9245 78.8882 11.8422C80.4121 10.7993 82.3204 10.2093 84.2699 10.2093C86.439 10.2093 88.7867 11.1835 90.3655 12.8988C91.7795 14.4357 92.5346 16.4803 92.5346 18.4837C92.5346 19.3756 92.411 20.789 92.1914 21.9829L90.7911 29.9691C90.7636 30.1338 90.6263 30.2573 90.4478 30.2573H87.0568C86.8372 30.2573 86.6862 30.0652 86.7136 29.8594L88.0865 21.9966C88.3061 20.8851 88.4297 19.4443 88.4297 18.5386C88.4297 15.6844 86.2606 14.0652 83.7757 14.0652C83.5011 14.0652 83.2128 14.0789 82.9382 14.1201C80.0003 14.5043 77.6664 16.8096 77.1584 19.7324L75.3737 29.9828C75.3462 30.1475 75.2089 30.271 75.0305 30.271H71.6395C71.4198 30.271 71.2688 30.0789 71.2963 29.8731L76.5132 0.288166C76.5406 0.1235 76.6779 0 76.8564 0H80.2474C80.467 0 80.6181 0.192113 80.5906 0.397945L78.6274 11.6638Z" fill="#3A21C0"/>
<path d="M108.625 29.0223C107.266 30.0515 105.302 30.7239 103.12 30.7239C97.9987 30.7239 93.8664 26.5523 93.8664 21.3516C93.8664 17.4271 95.9531 13.3791 99.7972 11.4168C101.252 10.6895 102.996 10.2642 104.74 10.2642C108.062 10.2642 109.998 11.5129 111.219 12.5009C111.316 12.5832 111.467 12.5283 111.494 12.4048L111.769 10.964C111.796 10.7993 111.947 10.6895 112.112 10.6895H115.297C115.517 10.6895 115.668 10.8817 115.64 11.0875L112.304 30.0103C112.277 30.175 112.139 30.2985 111.961 30.2985H108.79C108.57 30.2985 108.405 30.1063 108.446 29.8868L108.625 29.0223ZM109.984 19.7873C110.478 16.8919 108.309 14.175 105.371 14.1064C105.302 14.1064 105.247 14.1064 105.179 14.1064C101.335 14.1064 97.9301 17.0017 97.9301 21.1458C97.9301 24.6038 100.442 26.8954 103.861 26.8954C104.753 26.8954 105.728 26.6758 106.634 26.2916C108.158 25.6467 109.243 24.247 109.517 22.6141L109.984 19.7873Z" fill="#3A21C0"/>
<path d="M128.065 13.9007C128.01 14.0653 127.845 14.1614 127.68 14.134C127.392 14.0928 127.118 14.0653 126.829 14.0653C126.184 14.0653 125.552 14.1751 124.948 14.3535C122.518 15.1082 120.734 17.194 120.294 19.7051L118.51 29.9693C118.482 30.134 118.345 30.2575 118.166 30.2575H114.775C114.556 30.2575 114.405 30.0653 114.432 29.8595L117.768 10.9367C117.796 10.772 117.933 10.6485 118.112 10.6485H121.283C121.503 10.6485 121.667 10.8544 121.626 11.0602L121.42 12.0345C121.393 12.1991 121.571 12.3089 121.695 12.1991C123.123 11.0465 125.072 10.2231 126.912 10.2231C127.529 10.2231 128.12 10.278 128.751 10.4564C128.943 10.5113 129.04 10.7034 128.985 10.8818L128.065 13.9007Z" fill="#3A21C0"/>
</svg>
